<svg xmlns="http://www.w3.org/2000/svg" width="24.636" height="23.5" viewBox="0 0 24.636 23.5">
  <path id="path" d="M6.979,6.979V4.74A2.246,2.246,0,0,1,9.219,2.5H24.9a2.246,2.246,0,0,1,2.24,2.24V15.378a2.246,2.246,0,0,1-2.24,2.24h-1.12v3.919a1.12,1.12,0,0,1-1.9.784l-1.344-1.344H12.467l-4.7,4.7a1.12,1.12,0,0,1-1.9-.784V20.977H4.74a2.246,2.246,0,0,1-2.24-2.24V9.219a2.246,2.246,0,0,1,2.24-2.24ZM21.537,16.5a1.058,1.058,0,0,1,1.12-1.12H24.9V4.74H9.219V15.378h8.4a1.017,1.017,0,0,1,.784.336l3.136,3.136V16.5ZM6.979,9.219H4.74v9.519h2.24a1.058,1.058,0,0,1,1.12,1.12v2.352l3.136-3.136a1.017,1.017,0,0,1,.784-.336H18.29l-1.12-1.12H9.219a2.246,2.246,0,0,1-2.24-2.24V9.219Z" transform="translate(-2.5 -2.5)" fill="#6f33c7"/>
</svg>
