<svg xmlns="http://www.w3.org/2000/svg" width="23.833" height="16.056" viewBox="0 0 23.833 16.056">
  <g id="Grupo_19218" data-name="Grupo 19218" transform="translate(0.25 0.25)">
    <path id="Trazado_11151" data-name="Trazado 11151" d="M22.137,85.333H1.2A1.2,1.2,0,0,0,0,86.53V99.692a1.2,1.2,0,0,0,1.2,1.2h20.94a1.2,1.2,0,0,0,1.2-1.2V86.53A1.2,1.2,0,0,0,22.137,85.333Zm-.449.9-9.333,7a1.251,1.251,0,0,1-1.377,0l-9.333-7ZM16.7,93.692l5.086,6.282c.005.006.011.011.017.017H1.529c.005-.006.012-.01.017-.017l5.086-6.282a.449.449,0,0,0-.7-.565L.9,99.348V86.791l9.543,7.157a2.142,2.142,0,0,0,2.453,0l9.543-7.157V99.348L17.4,93.128a.449.449,0,0,0-.7.565Z" transform="translate(0 -85.333)" fill="#6f33c7" stroke="#6f33c7" stroke-width="0.5"/>
  </g>
</svg>
