<svg id="Grupo_19218" data-name="Grupo 19218" xmlns="http://www.w3.org/2000/svg" width="19.333" height="12.889" viewBox="0 0 19.333 12.889">
  <path id="Trazado_11151" data-name="Trazado 11151" d="M18.342,85.333H.991A.994.994,0,0,0,0,86.324V97.23a.994.994,0,0,0,.991.991h17.35a.994.994,0,0,0,.991-.991V86.324A.994.994,0,0,0,18.342,85.333Zm-.372.744-7.733,5.8a1.037,1.037,0,0,1-1.141,0l-7.733-5.8Zm-4.131,6.183,4.214,5.205.014.014H1.267l.014-.014,4.214-5.205a.372.372,0,0,0-.578-.468L.744,96.946v-10.4l7.907,5.93a1.775,1.775,0,0,0,2.032,0l7.907-5.93v10.4l-4.172-5.154a.372.372,0,0,0-.578.468Z" transform="translate(0 -85.333)"/>
</svg>
