<svg xmlns="http://www.w3.org/2000/svg" xmlns:xlink="http://www.w3.org/1999/xlink" width="118.124" height="80.373" viewBox="0 0 118.124 80.373">
  <defs>
    <linearGradient id="linear-gradient" x1="0.25" y1="0.933" x2="0.75" y2="0.067" gradientUnits="objectBoundingBox">
      <stop offset="0" stop-color="#5b08a3"/>
      <stop offset="1" stop-color="#ec0578"/>
    </linearGradient>
  </defs>
  <g id="Grupo_235" data-name="Grupo 235" transform="translate(-98.654 -175.939)">
    <path id="Trazado_11148" data-name="Trazado 11148" d="M0,67.481Z" transform="translate(98.654 152)" fill="url(#linear-gradient)"/>
    <path id="Trazado_75" data-name="Trazado 75" d="M249.9,164.555c2.216-2.768,4.556-5.469,6.633-8.358a10.1,10.1,0,0,0,2.009-6.774,2.388,2.388,0,0,0-2.448-2.569c-3.567-.376-8.178,2.568-10.1,6.446a13.265,13.265,0,0,0,3.636,16.2c4.887,3.964,13.574,5.8,20.173,1.315,6.278-4.27,9.488-11.88,7.258-18.325-1.555-4.5-4.689-7.947-8.1-11.171-2.946-2.784-6.129-5.415-8.591-8.59-5.2-6.7-6.915-14.167-2.822-22.111,4.552-8.834,16.284-12.008,25.223-6.67-1.978-.422-3.559-.821-5.163-1.091-8.876-1.495-17.306,4.194-18.63,13-.957,6.357,1.629,11.722,6.21,16.078,3.4,3.237,7.061,6.209,10.407,9.5a22.147,22.147,0,0,1,6.6,11.329c1.625,8.084-1.111,14.742-7.108,20.267-10.379,9.563-26.593,4.875-32.05-4.3-5.853-9.839-.907-22.11,10.219-24.495,4.464-.957,8.674,1.524,7.23,7.272-1.141,4.541-4.22,7.69-7.571,10.643C251.936,163.015,250.871,163.784,249.9,164.555Z" transform="translate(-97.056 76.686)" fill="#fff"/>
    <path id="Trazado_76" data-name="Trazado 76" d="M339.642,98.836a30.7,30.7,0,0,0-14.227,1.012c-10.22,3.375-18.079,9.447-21.814,19.953a10.126,10.126,0,0,0-.573,2.8c-.113,2.061.833,2.791,2.9,2.336,3.462-.76,5.832-3.034,7.683-5.858a12.09,12.09,0,0,0,1.794-8.848,7.68,7.68,0,0,1,.411,5.971c-1.335,5.025-4.3,8.675-9.375,10.239-3.52,1.084-5.765-1.033-5.177-4.71.953-5.95,4.053-10.735,8.35-14.759a32.78,32.78,0,0,1,21.725-9.267,73.072,73.072,0,0,1,8.382.619Z" transform="translate(-122.946 78.245)" fill="#fff"/>
    <path id="Trazado_77" data-name="Trazado 77" d="M214.973,223.646c-10.082,6.718-21.392,8.578-33.245,8.162,5.652-.886,11.345-1.633,16.977-2.7A69.323,69.323,0,0,0,214.973,223.646Z" transform="translate(-71.928 24.448)" fill="#fff"/>
  </g>
</svg>
