<svg id="man" xmlns="http://www.w3.org/2000/svg" width="16.876" height="25.001" viewBox="0 0 16.876 25.001">
  <path id="man-2" data-name="man" d="M90.575,17.822a1.731,1.731,0,0,1-1.489-.836.417.417,0,1,0-.712.434,2.572,2.572,0,0,0,.872.868l-.432,1.96-1.041-1.2a.417.417,0,1,0-.607-.572l-.733.843L84.587,17.27a2.545,2.545,0,0,0,.279-.978,5.579,5.579,0,0,0,7.145-5.347V7.5a.417.417,0,0,0-.833,0v3.444a4.74,4.74,0,1,1-9.48,0V7.408a2.353,2.353,0,0,0,2.188-1.851,14.254,14.254,0,0,0,5.721,2.117.417.417,0,0,0,.116-.825A13.429,13.429,0,0,1,83.814,4.5a.417.417,0,0,0-.657.343,1.9,1.9,0,0,1-.788,1.515,1.715,1.715,0,0,1-1.083.2.417.417,0,0,0-.418.369c0,.04,0-.1,0,3.334A.86.86,0,0,1,80.4,9.5V4.427a.991.991,0,0,1,.99-.99.417.417,0,0,0,.387-.262A3.708,3.708,0,0,1,85.232.833h3.573A3.73,3.73,0,0,1,92.532,4.56V9.5a.417.417,0,1,0,.833,0V4.56A4.565,4.565,0,0,0,88.806,0H85.232A4.536,4.536,0,0,0,81.1,2.626a1.826,1.826,0,0,0-1.54,1.8V9.5a1.7,1.7,0,0,0,1.306,1.647,5.582,5.582,0,0,0,3.173,4.825v.11A1.738,1.738,0,0,1,82.3,17.822a4.3,4.3,0,0,0-4.3,4.3v2.461a.417.417,0,1,0,.833,0V22.123A3.465,3.465,0,0,1,82.3,18.656a2.6,2.6,0,0,0,.544-.058l.581,2.639a.417.417,0,0,0,.722.184l.821-.945-.507,4.058a.417.417,0,0,0,.827.1l.586-4.69c.027.029.258.289.288.315a.417.417,0,0,0,.587-.037l.25-.287.587,4.7a.417.417,0,0,0,.827-.1l-.507-4.058.821.945a.417.417,0,0,0,.722-.184l.581-2.639a2.617,2.617,0,0,0,.544.058,3.466,3.466,0,0,1,3.467,3.468v2.461a.417.417,0,0,0,.833,0V22.123a4.3,4.3,0,0,0-4.3-4.3Zm-6.513,2.426-.432-1.96a2.587,2.587,0,0,0,.445-.341l1.01,1.123Z" transform="translate(-78)" fill="#fff"/>
</svg>
