<svg id="woman" xmlns="http://www.w3.org/2000/svg" width="16.876" height="25.002" viewBox="0 0 16.876 25.002">
  <path id="woman-2" data-name="woman" d="M94.875,22.123v2.461a.417.417,0,0,1-.833,0V22.123a3.466,3.466,0,0,0-3.468-3.467,2.59,2.59,0,0,1-.953-.181l-.951,6.173a.417.417,0,1,1-.824-.127L88.852,18a2.6,2.6,0,0,1-.478-.577.417.417,0,0,1,.712-.434,1.736,1.736,0,0,0,1.489.836A4.3,4.3,0,0,1,94.875,22.123ZM87.992,19.37a.417.417,0,0,0-.585-.074l-.971.752L84.054,18.2,84.023,18a2.551,2.551,0,0,0,.843-1.7,5.579,5.579,0,0,0,7.144-5.3c0-.009,0-2.906,0-2.915a.418.418,0,0,0-.237-.376,3.777,3.777,0,0,1-2.5-2.226.417.417,0,0,0-.719-.1,10.145,10.145,0,0,1-6.117,3.815.417.417,0,0,0,.081.826A10.916,10.916,0,0,0,88.8,6.394a4.534,4.534,0,0,0,2.379,1.982v2.569a4.741,4.741,0,1,1-9.48-.163.417.417,0,0,0-.833,0c0,.022,0,.23,0,.251a5.581,5.581,0,0,0,3.177,4.943v.11A1.738,1.738,0,0,1,82.3,17.823a4.282,4.282,0,0,0-1.9.444V5.6A4.771,4.771,0,0,1,85.161.833h2.6A4.771,4.771,0,0,1,92.531,5.6V16.876a.417.417,0,0,0,.833,0V5.6a5.606,5.606,0,0,0-5.6-5.6h-2.6a5.606,5.606,0,0,0-5.6,5.6V18.807A4.279,4.279,0,0,0,78,22.123v2.461a.417.417,0,0,0,.833,0V22.123A3.467,3.467,0,0,1,82.3,18.656a2.576,2.576,0,0,0,.953-.182l.951,6.174a.417.417,0,1,0,.824-.127L84.239,19.4l1.943,1.5a.417.417,0,0,0,.51,0l1.226-.949a.417.417,0,0,0,.074-.585Z" transform="translate(-77.999 0)" fill="#fff"/>
</svg>
